<svg xmlns="http://www.w3.org/2000/svg" x="0px" y="0px"
width="50" height="50"
viewBox="0 0 172 172"
style=" fill:#000000;"><g fill="none" fill-rule="nonzero" stroke="none" stroke-width="1" stroke-linecap="butt" stroke-linejoin="miter" stroke-miterlimit="10" stroke-dasharray="" stroke-dashoffset="0" font-family="none" font-weight="none" font-size="none" text-anchor="none" style="mix-blend-mode: normal"><path d="M0,172v-172h172v172z" fill="none"></path><g fill="#ffffff"><path d="M59.125,37.625c-26.71375,0 -48.375,21.66125 -48.375,48.375c0,26.71375 21.66125,48.375 48.375,48.375c26.71375,0 48.375,-21.66125 48.375,-48.375c0,-3.31906 -0.36281,-6.5575 -0.99437,-9.675l-0.26875,-1.075h-47.11188v16.125h32.25c-2.56656,15.25156 -16.27281,26.875 -32.25,26.875c-17.81812,0 -32.25,-14.43187 -32.25,-32.25c0,-17.81812 14.43188,-32.25 32.25,-32.25c8.0625,0 15.41281,2.98313 21.07,7.87438l11.55625,-11.31438c-8.6,-7.87437 -20.04875,-12.685 -32.62625,-12.685zM134.375,59.125v16.125h-16.125v10.75h16.125v16.125h10.75v-16.125h16.125v-10.75h-16.125v-16.125z"></path></g></g></svg>